<?xml version="1.0" encoding="UTF-8" standalone="no"?>
<!-- Created with Inkscape (http://www.inkscape.org/) -->

<svg
   xmlns:dc="http://purl.org/dc/elements/1.1/"
   xmlns:cc="http://creativecommons.org/ns#"
   xmlns:rdf="http://www.w3.org/1999/02/22-rdf-syntax-ns#"
   xmlns:svg="http://www.w3.org/2000/svg"
   xmlns="http://www.w3.org/2000/svg"
   xmlns:sodipodi="http://sodipodi.sourceforge.net/DTD/sodipodi-0.dtd"
   xmlns:inkscape="http://www.inkscape.org/namespaces/inkscape"
   version="1.1"
   id="svg815"
   width="429.33334"
   height="109.33333"
   viewBox="0 0 429.33334 109.33333"
   sodipodi:docname="logo_display.svg"
   inkscape:version="0.92.2 2405546, 2018-03-11">
  <metadata
     id="metadata821">
    <rdf:RDF>
      <cc:Work
         rdf:about="">
        <dc:format>image/svg+xml</dc:format>
        <dc:type
           rdf:resource="http://purl.org/dc/dcmitype/StillImage" />
        <dc:title></dc:title>
      </cc:Work>
    </rdf:RDF>
  </metadata>
  <defs
     id="defs819" />
  <sodipodi:namedview
     pagecolor="#ffffff"
     bordercolor="#666666"
     borderopacity="1"
     objecttolerance="10"
     gridtolerance="10"
     guidetolerance="10"
     inkscape:pageopacity="0"
     inkscape:pageshadow="2"
     inkscape:window-width="1920"
     inkscape:window-height="1031"
     id="namedview817"
     showgrid="true"
     inkscape:snap-text-baseline="false"
     inkscape:zoom="2"
     inkscape:cx="241.78049"
     inkscape:cy="126.78121"
     inkscape:window-x="0"
     inkscape:window-y="24"
     inkscape:window-maximized="0"
     inkscape:current-layer="svg815">
    <inkscape:grid
       type="xygrid"
       id="grid829"
       visible="false" />
  </sodipodi:namedview>
  <g
     id="g967">
    <g
       id="text827"
       style="font-style:normal;font-variant:normal;font-weight:normal;font-stretch:normal;font-size:90px;line-height:1.25;font-family:Lato;-inkscape-font-specification:'Lato, Normal';font-variant-ligatures:normal;font-variant-caps:normal;font-variant-numeric:normal;font-feature-settings:normal;text-align:start;letter-spacing:0px;word-spacing:0px;writing-mode:lr-tb;text-anchor:start;fill:#009cd7;fill-opacity:1;stroke:none;stroke-width:1.76315844"
       aria-label="Audionamix">
      <path
         id="path914"
         style="font-style:normal;font-variant:normal;font-weight:normal;font-stretch:normal;font-size:90px;line-height:15.25;font-family:Lato;-inkscape-font-specification:'Lato, Normal';font-variant-ligatures:normal;font-variant-caps:normal;font-variant-numeric:normal;font-feature-settings:normal;text-align:start;letter-spacing:-6px;writing-mode:lr-tb;text-anchor:start;fill:#009cd7;fill-opacity:1;stroke-width:1.76315844"
         d="m 60.971274,68.258919 h -6.75 q -1.17,0 -1.89,-0.585 -0.72,-0.585 -1.08,-1.485 l -6.03,-15.57 h -28.935 l -6.03,15.57 q -0.3149996,0.81 -1.0799996,1.44 -0.765,0.63 -1.89,0.63 h -6.75 L 26.321274,3.7739188 h 8.865 z m -42.255,-23.94 h 24.075 l -10.125,-26.235 q -0.99,-2.43 -1.935,-6.075 -0.495,1.845 -0.99,3.42 -0.45,1.53 -0.9,2.7 z" />
      <path
         id="path916"
         style="font-style:normal;font-variant:normal;font-weight:normal;font-stretch:normal;font-size:90px;line-height:15.25;font-family:Lato;-inkscape-font-specification:'Lato, Normal';font-variant-ligatures:normal;font-variant-caps:normal;font-variant-numeric:normal;font-feature-settings:normal;text-align:start;letter-spacing:-6px;writing-mode:lr-tb;text-anchor:start;fill:#009cd7;fill-opacity:1;stroke-width:1.76315844"
         d="m 68.758149,22.673919 v 29.07 q 0,5.175 2.385,8.01 2.385,2.835 7.2,2.835 3.51,0 6.615,-1.665 3.105,-1.665 5.715,-4.635 v -33.615 h 8.01 v 45.585 h -4.77 q -1.71,0 -2.16,-1.665 l -0.63,-4.905 q -2.97,3.285 -6.66,5.31 -3.69,1.98 -8.46,1.98 -3.735,0 -6.615,-1.215 -2.835,-1.26 -4.77,-3.51 -1.935,-2.25 -2.925,-5.445 -0.945,-3.195 -0.945,-7.065 v -29.07 z" />
      <path
         id="path918"
         style="font-style:normal;font-variant:normal;font-weight:normal;font-stretch:normal;font-size:90px;line-height:15.25;font-family:Lato;-inkscape-font-specification:'Lato, Normal';font-variant-ligatures:normal;font-variant-caps:normal;font-variant-numeric:normal;font-feature-settings:normal;text-align:start;letter-spacing:-6px;writing-mode:lr-tb;text-anchor:start;fill:#009cd7;fill-opacity:1;stroke-width:1.76315844"
         d="m 138.01081,68.258919 q -1.71,0 -2.16,-1.665 l -0.72,-5.535 q -2.925,3.555 -6.705,5.715 -3.735,2.115 -8.595,2.115 -3.915,0 -7.11,-1.485 -3.195,-1.53 -5.445,-4.455 -2.25,-2.925 -3.465,-7.29 -1.215,-4.365 -1.215,-10.035 0,-5.04 1.35,-9.36 1.35,-4.365 3.87,-7.56 2.565,-3.195 6.21,-4.995 3.645,-1.845 8.28,-1.845 4.185,0 7.155,1.44 2.97,1.395 5.31,3.96 V 1.9739188 h 8.01 V 68.258919 Z m -15.525,-5.85 q 3.915,0 6.84,-1.8 2.97,-1.8 5.445,-5.085 v -22.05 q -2.205,-2.97 -4.86,-4.14 -2.61,-1.215 -5.805,-1.215 -6.39,0 -9.81,4.545 -3.42,4.545 -3.42,12.96 0,4.455 0.765,7.65 0.765,3.15 2.25,5.22 1.485,2.025 3.645,2.97 2.16,0.945 4.95,0.945 z" />
      <path
         id="path920"
         style="font-style:normal;font-variant:normal;font-weight:normal;font-stretch:normal;font-size:90px;line-height:15.25;font-family:Lato;-inkscape-font-specification:'Lato, Normal';font-variant-ligatures:normal;font-variant-caps:normal;font-variant-numeric:normal;font-feature-settings:normal;text-align:start;letter-spacing:-6px;writing-mode:lr-tb;text-anchor:start;fill:#009cd7;fill-opacity:1;stroke-width:1.76315844"
         d="m 159.10924,22.673919 v 45.585 h -8.01 v -45.585 z m 1.8,-14.3100002 q 0,1.17 -0.495,2.2050002 -0.45,0.99 -1.26,1.8 -0.765,0.765 -1.8,1.215 -1.035,0.45 -2.205,0.45 -1.17,0 -2.205,-0.45 -0.99,-0.45 -1.8,-1.215 -0.765,-0.81 -1.215,-1.8 -0.45,-1.0350002 -0.45,-2.2050002 0,-1.17 0.45,-2.205 0.45,-1.08 1.215,-1.845 0.81,-0.81 1.8,-1.26 1.035,-0.45 2.205,-0.45 1.17,0 2.205,0.45 1.035,0.45 1.8,1.26 0.81,0.765 1.26,1.845 0.495,1.035 0.495,2.205 z" />
      <path
         id="path922"
         style="font-style:normal;font-variant:normal;font-weight:normal;font-stretch:normal;font-size:90px;line-height:15.25;font-family:Lato;-inkscape-font-specification:'Lato, Normal';font-variant-ligatures:normal;font-variant-caps:normal;font-variant-numeric:normal;font-feature-settings:normal;text-align:start;letter-spacing:-6px;writing-mode:lr-tb;text-anchor:start;fill:#009cd7;fill-opacity:1;stroke-width:1.76315844"
         d="m 185.67659,21.953919 q 4.995,0 9,1.665 4.05,1.665 6.84,4.725 2.835,3.06 4.32,7.425 1.53,4.32 1.53,9.675 0,5.4 -1.53,9.72 -1.485,4.32 -4.32,7.38 -2.79,3.06 -6.84,4.725 -4.005,1.62 -9,1.62 -4.995,0 -9.045,-1.62 -4.005,-1.665 -6.84,-4.725 -2.835,-3.06 -4.365,-7.38 -1.53,-4.32 -1.53,-9.72 0,-5.355 1.53,-9.675 1.53,-4.365 4.365,-7.425 2.835,-3.06 6.84,-4.725 4.05,-1.665 9.045,-1.665 z m 0,40.68 q 6.75,0 10.08,-4.5 3.33,-4.545 3.33,-12.645 0,-8.145 -3.33,-12.69 -3.33,-4.545 -10.08,-4.545 -3.42,0 -5.94,1.17 -2.52,1.17 -4.23,3.375 -1.665,2.205 -2.52,5.445 -0.81,3.195 -0.81,7.245 0,4.05 0.81,7.245 0.855,3.195 2.52,5.4 1.71,2.16 4.23,3.33 2.52,1.17 5.94,1.17 z" />
      <path
         id="path924"
         style="font-style:normal;font-variant:normal;font-weight:normal;font-stretch:normal;font-size:90px;line-height:15.25;font-family:Lato;-inkscape-font-specification:'Lato, Normal';font-variant-ligatures:normal;font-variant-caps:normal;font-variant-numeric:normal;font-feature-settings:normal;text-align:start;letter-spacing:-6px;writing-mode:lr-tb;text-anchor:start;fill:#009cd7;fill-opacity:1;stroke-width:1.76315844"
         d="m 211.32424,68.258919 v -45.585 h 4.77 q 1.71,0 2.16,1.665 l 0.63,4.95 q 2.97,-3.285 6.615,-5.31 3.69,-2.025 8.505,-2.025 3.735,0 6.57,1.26 2.88,1.215 4.77,3.51 1.935,2.25 2.925,5.445 0.99,3.195 0.99,7.065 v 29.025 h -8.01 v -29.025 q 0,-5.175 -2.385,-8.01 -2.34,-2.88 -7.2,-2.88 -3.555,0 -6.66,1.71 -3.06,1.71 -5.67,4.635 v 33.57 z" />
      <path
         id="path926"
         style="font-style:normal;font-variant:normal;font-weight:normal;font-stretch:normal;font-size:90px;line-height:15.25;font-family:Lato;-inkscape-font-specification:'Lato, Normal';font-variant-ligatures:normal;font-variant-caps:normal;font-variant-numeric:normal;font-feature-settings:normal;text-align:start;letter-spacing:-6px;writing-mode:lr-tb;text-anchor:start;fill:#009cd7;fill-opacity:1;stroke-width:1.76315844"
         d="m 288.9019,68.258919 h -3.555 q -1.17,0 -1.89,-0.36 -0.72,-0.36 -0.945,-1.53 l -0.9,-4.23 q -1.8,1.62 -3.51,2.925 -1.71,1.26 -3.6,2.16 -1.89,0.855 -4.05,1.305 -2.115,0.45 -4.725,0.45 -2.655,0 -4.995,-0.72 -2.295,-0.765 -4.005,-2.25 -1.71,-1.485 -2.745,-3.735 -0.99,-2.295 -0.99,-5.4 0,-2.7 1.485,-5.175 1.485,-2.52 4.77,-4.455 3.33,-1.935 8.685,-3.15 5.355,-1.26 13.095,-1.44 v -3.555 q 0,-5.31 -2.295,-8.01 -2.25,-2.745 -6.705,-2.745 -2.925,0 -4.95,0.765 -1.98,0.72 -3.465,1.665 -1.44,0.9 -2.52,1.665 -1.035,0.72 -2.07,0.72 -0.81,0 -1.44,-0.405 -0.585,-0.45 -0.945,-1.08 l -1.44,-2.565 q 3.78,-3.645 8.145,-5.445 4.365,-1.8 9.675,-1.8 3.825,0 6.795,1.26 2.97,1.26 4.995,3.51 2.025,2.25 3.06,5.445 1.035,3.195 1.035,7.02 z m -20.79,-4.905 q 2.115,0 3.87,-0.405 1.755,-0.45 3.285,-1.215 1.575,-0.81 2.97,-1.935 1.44,-1.125 2.79,-2.565 v -9.495 q -5.535,0.18 -9.405,0.9 -3.87,0.675 -6.3,1.8 -2.43,1.125 -3.555,2.655 -1.08,1.53 -1.08,3.42 0,1.8 0.585,3.105 0.585,1.305 1.575,2.16 0.99,0.81 2.34,1.215 1.35,0.36 2.925,0.36 z" />
      <path
         id="path928"
         style="font-style:normal;font-variant:normal;font-weight:normal;font-stretch:normal;font-size:90px;line-height:15.25;font-family:Lato;-inkscape-font-specification:'Lato, Normal';font-variant-ligatures:normal;font-variant-caps:normal;font-variant-numeric:normal;font-feature-settings:normal;text-align:start;letter-spacing:-6px;writing-mode:lr-tb;text-anchor:start;fill:#009cd7;fill-opacity:1;stroke-width:1.76315844"
         d="m 295.12502,68.258919 v -45.585 h 4.77 q 1.71,0 2.16,1.665 l 0.585,4.68 q 2.52,-3.105 5.625,-5.085 3.15,-1.98 7.29,-1.98 4.635,0 7.47,2.565 2.88,2.565 4.14,6.93 0.945,-2.475 2.475,-4.275 1.575,-1.8 3.51,-2.97 1.935,-1.17 4.095,-1.71 2.205,-0.54 4.455,-0.54 3.6,0 6.39,1.17 2.835,1.125 4.77,3.33 1.98,2.205 3.015,5.445 1.035,3.195 1.035,7.335 v 29.025 h -8.01 v -29.025 q 0,-5.355 -2.34,-8.1 -2.34,-2.79 -6.795,-2.79 -1.98,0 -3.78,0.72 -1.755,0.675 -3.105,2.025 -1.35,1.35 -2.16,3.42 -0.765,2.025 -0.765,4.725 v 29.025 h -8.01 v -29.025 q 0,-5.49 -2.205,-8.19 -2.205,-2.7 -6.435,-2.7 -2.97,0 -5.535,1.62 -2.52,1.575 -4.635,4.32 v 33.975 z" />
      <path
         id="path930"
         style="font-style:normal;font-variant:normal;font-weight:normal;font-stretch:normal;font-size:90px;line-height:15.25;font-family:Lato;-inkscape-font-specification:'Lato, Normal';font-variant-ligatures:normal;font-variant-caps:normal;font-variant-numeric:normal;font-feature-settings:normal;text-align:start;letter-spacing:-6px;writing-mode:lr-tb;text-anchor:start;fill:#009cd7;fill-opacity:1;stroke-width:1.76315844"
         d="m 371.86315,22.673919 v 45.585 h -8.01 v -45.585 z m 1.8,-14.3100002 q 0,1.17 -0.495,2.2050002 -0.45,0.99 -1.26,1.8 -0.765,0.765 -1.8,1.215 -1.035,0.45 -2.205,0.45 -1.17,0 -2.205,-0.45 -0.99,-0.45 -1.8,-1.215 -0.765,-0.81 -1.215,-1.8 -0.45,-1.0350002 -0.45,-2.2050002 0,-1.17 0.45,-2.205 0.45,-1.08 1.215,-1.845 0.81,-0.81 1.8,-1.26 1.035,-0.45 2.205,-0.45 1.17,0 2.205,0.45 1.035,0.45 1.8,1.26 0.81,0.765 1.26,1.845 0.495,1.035 0.495,2.205 z" />
      <path
         id="path932"
         style="font-style:normal;font-variant:normal;font-weight:normal;font-stretch:normal;font-size:90px;line-height:15.25;font-family:Lato;-inkscape-font-specification:'Lato, Normal';font-variant-ligatures:normal;font-variant-caps:normal;font-variant-numeric:normal;font-feature-settings:normal;text-align:start;letter-spacing:-6px;writing-mode:lr-tb;text-anchor:start;fill:#009cd7;fill-opacity:1;stroke-width:1.76315844"
         d="m 390.64549,44.903919 -15.345,-22.23 h 7.695 q 0.99,0 1.44,0.315 0.45,0.315 0.81,0.9 l 11.16,17.1 q 0.405,-1.26 1.17,-2.52 l 9.81,-14.4 q 0.45,-0.63 0.9,-0.99 0.45,-0.405 1.125,-0.405 h 7.38 l -15.345,21.78 15.975,23.805 h -7.695 q -0.99,0 -1.575,-0.495 -0.54,-0.54 -0.9,-1.17 l -11.475,-17.865 q -0.315,1.305 -0.945,2.34 l -10.62,15.525 q -0.45,0.63 -0.99,1.17 -0.495,0.495 -1.395,0.495 h -7.155 z" />
    </g>
    <g
       id="text825"
       style="font-style:normal;font-weight:normal;font-size:13.086092px;line-height:1.25;font-family:sans-serif;letter-spacing:0px;word-spacing:0px;fill:#009cd7;fill-opacity:1;stroke:none;stroke-width:0.32715231"
       aria-label="®">
      <path
         id="path911"
         style="stroke-width:0.32715231"
         d="m 423.29918,60.640956 q -0.83705,0 -1.55909,0.300315 -0.72203,0.300316 -1.32266,0.900947 -0.60063,0.600631 -0.90734,1.335446 -0.3067,0.728425 -0.3067,1.559085 0,0.824271 0.3067,1.552696 0.30671,0.722035 0.90734,1.322666 0.60063,0.600631 1.32266,0.907337 0.72204,0.300315 1.55909,0.300315 0.84344,0 1.56547,-0.300315 0.72843,-0.306706 1.32906,-0.907337 0.59424,-0.594241 0.88817,-1.316277 0.30031,-0.722035 0.30031,-1.559085 0,-0.849829 -0.30031,-1.571865 -0.30032,-0.728425 -0.88817,-1.322666 -0.60063,-0.600631 -1.32906,-0.900947 -0.72203,-0.300315 -1.56547,-0.300315 z m 0,-0.658139 q 0.97123,0 1.80828,0.351433 0.84344,0.351433 1.53992,1.04791 0.69648,0.696477 1.04152,1.533526 0.34504,0.83705 0.34504,1.821063 0,0.971233 -0.34504,1.808283 -0.34504,0.83066 -1.04152,1.527137 -0.69648,0.696477 -1.53992,1.04791 -0.83705,0.351433 -1.80828,0.351433 -0.97123,0 -1.81467,-0.351433 -0.83705,-0.351433 -1.53353,-1.04791 -0.69648,-0.696477 -1.04152,-1.527137 -0.34504,-0.83705 -0.34504,-1.808283 0,-0.984013 0.34504,-1.821063 0.34504,-0.837049 1.04152,-1.533526 0.69648,-0.696477 1.53353,-1.04791 0.84344,-0.351433 1.81467,-0.351433 z m -0.17252,2.645333 h -0.78593 v 1.763556 h 0.78593 q 0.70286,0 0.97762,-0.198081 0.28115,-0.19808 0.28115,-0.677307 0,-0.485617 -0.28115,-0.683698 -0.28115,-0.20447 -0.97762,-0.20447 z m 0.0447,-0.658138 q 1.12458,0 1.68049,0.383381 0.5559,0.376992 0.5559,1.150145 0,0.549514 -0.33865,0.907337 -0.33227,0.357823 -0.94568,0.466447 0.15335,0.05112 0.36421,0.300316 0.21725,0.242808 0.51118,0.709256 l 0.87539,1.424901 h -1.09903 l -0.82427,-1.335445 q -0.37699,-0.613411 -0.61341,-0.773153 -0.23003,-0.166132 -0.57507,-0.166132 h -0.42172 v 2.27473 h -0.99041 v -5.341783 z" />
    </g>
    <g
       id="text831"
       style="font-style:normal;font-variant:normal;font-weight:300;font-stretch:normal;font-size:26.66666603px;line-height:1.25;font-family:'Sunflower Light';-inkscape-font-specification:'Sunflower Light, Light';font-variant-ligatures:normal;font-variant-caps:normal;font-variant-numeric:normal;font-feature-settings:normal;text-align:start;letter-spacing:10.02999973px;word-spacing:0px;writing-mode:lr-tb;text-anchor:start;fill:#9ca2b0;fill-opacity:1;stroke:none"
       aria-label="SEPARATE CREATE">
      <path
         id="path882"
         style="font-style:normal;font-variant:normal;font-weight:300;font-stretch:normal;font-size:26.66666603px;font-family:'Sunflower Light';-inkscape-font-specification:'Sunflower Light, Light';font-variant-ligatures:normal;font-variant-caps:normal;font-variant-numeric:normal;font-feature-settings:normal;text-align:start;letter-spacing:14.28999996px;writing-mode:lr-tb;text-anchor:start;fill:#9ca2b0;fill-opacity:1"
         d="m 6.9230504,88.22323 q -3.9999999,0 -3.9999999,3.013333 0,0.826667 0.1866667,1.386667 0.2133333,0.533333 0.72,0.933333 0.5333333,0.373333 1.4399999,0.64 0.9066667,0.266667 2.32,0.586667 1.4133333,0.32 2.3733332,0.693333 0.9866667,0.373333 1.5999997,0.933333 0.613334,0.56 0.88,1.36 0.293334,0.8 0.293334,1.946667 0,5.679997 -5.8933336,5.679997 -0.9866666,0 -2.2133333,-0.13333 -1.1999999,-0.10667 -2.6666666,-0.32 l -0.9599999,-0.13333 0.2133333,-1.70667 q 3.6533332,0.48 5.5199999,0.48 3.9466662,0 3.9466662,-3.706667 0,-0.746667 -0.213333,-1.253333 -0.186667,-0.533334 -0.6666666,-0.88 Q 9.349717,97.369896 8.5497171,97.129896 7.7763837,96.86323 6.5763838,96.62323 q -1.5466667,-0.32 -2.64,-0.72 -1.0933333,-0.4 -1.7866666,-0.986667 -0.6933333,-0.613333 -1.0133333,-1.466667 -0.29333333,-0.853333 -0.29333333,-2.08 0,-4.959999 5.94666653,-4.959999 1.9466666,0 4.6666669,0.4 l 0.906666,0.133333 -0.186666,1.733333 q -1.866667,-0.213333 -3.1733336,-0.32 -1.3066667,-0.133333 -2.08,-0.133333 z" />
      <path
         id="path884"
         style="font-style:normal;font-variant:normal;font-weight:300;font-stretch:normal;font-size:26.66666603px;font-family:'Sunflower Light';-inkscape-font-specification:'Sunflower Light, Light';font-variant-ligatures:normal;font-variant-caps:normal;font-variant-numeric:normal;font-feature-settings:normal;text-align:start;letter-spacing:14.28999996px;writing-mode:lr-tb;text-anchor:start;fill:#9ca2b0;fill-opacity:1"
         d="m 41.825549,105.15656 v -1.81333 h -9.173333 v -6.666667 h 7.573333 v -1.786667 h -7.573333 v -6.373333 h 9.173333 V 86.70323 H 30.598882 v 18.45333 z" />
      <path
         id="path886"
         style="font-style:normal;font-variant:normal;font-weight:300;font-stretch:normal;font-size:26.66666603px;font-family:'Sunflower Light';-inkscape-font-specification:'Sunflower Light, Light';font-variant-ligatures:normal;font-variant-caps:normal;font-variant-numeric:normal;font-feature-settings:normal;text-align:start;letter-spacing:14.28999996px;writing-mode:lr-tb;text-anchor:start;fill:#9ca2b0;fill-opacity:1"
         d="m 66.375132,98.94323 h -4.693333 v 6.21333 H 59.628465 V 86.70323 h 6.746667 q 3.04,0 4.453333,1.466667 1.44,1.44 1.44,4.479999 0,6.293334 -5.893333,6.293334 z M 61.681799,88.516563 v 8.613333 h 4.666666 q 3.813333,0 3.813333,-4.48 0,-2.16 -0.906666,-3.146666 -0.906667,-0.986667 -2.906667,-0.986667 z" />
      <path
         id="path888"
         style="font-style:normal;font-variant:normal;font-weight:300;font-stretch:normal;font-size:26.66666603px;font-family:'Sunflower Light';-inkscape-font-specification:'Sunflower Light, Light';font-variant-ligatures:normal;font-variant-caps:normal;font-variant-numeric:normal;font-feature-settings:normal;text-align:start;letter-spacing:14.28999996px;writing-mode:lr-tb;text-anchor:start;fill:#9ca2b0;fill-opacity:1"
         d="m 90.151798,105.15656 1.333333,-4.74666 h 7.893334 l 1.333335,4.74666 h 2.02666 L 97.671798,86.70323 h -4.48 l -5.066666,18.45333 z m 5.973333,-16.69333 2.8,10.106666 h -6.986666 l 2.8,-10.106666 z" />
      <path
         id="path890"
         style="font-style:normal;font-variant:normal;font-weight:300;font-stretch:normal;font-size:26.66666603px;font-family:'Sunflower Light';-inkscape-font-specification:'Sunflower Light, Light';font-variant-ligatures:normal;font-variant-caps:normal;font-variant-numeric:normal;font-feature-settings:normal;text-align:start;letter-spacing:14.28999996px;writing-mode:lr-tb;text-anchor:start;fill:#9ca2b0;fill-opacity:1"
         d="m 127.20721,98.089896 h -5.22666 v 7.066664 h -2.05334 V 86.70323 h 6.82667 q 2.96,0 4.42667,1.36 1.46666,1.333333 1.46666,4.24 0,4.293333 -3.38666,5.36 l 3.54666,7.49333 h -2.26666 z m -5.22666,-1.813333 h 4.8 q 3.76,0 3.76,-3.893333 0,-3.866667 -3.78667,-3.866667 h -4.77333 z" />
      <path
         id="path892"
         style="font-style:normal;font-variant:normal;font-weight:300;font-stretch:normal;font-size:26.66666603px;font-family:'Sunflower Light';-inkscape-font-specification:'Sunflower Light, Light';font-variant-ligatures:normal;font-variant-caps:normal;font-variant-numeric:normal;font-feature-settings:normal;text-align:start;letter-spacing:14.28999996px;writing-mode:lr-tb;text-anchor:start;fill:#9ca2b0;fill-opacity:1"
         d="m 151.02346,105.15656 1.33334,-4.74666 h 7.89333 l 1.33333,4.74666 h 2.02667 l -5.06667,-18.45333 h -4.48 l -5.06666,18.45333 z m 5.97334,-16.69333 2.8,10.106666 h -6.98667 l 2.8,-10.106666 z" />
      <path
         id="path894"
         style="font-style:normal;font-variant:normal;font-weight:300;font-stretch:normal;font-size:26.66666603px;font-family:'Sunflower Light';-inkscape-font-specification:'Sunflower Light, Light';font-variant-ligatures:normal;font-variant-caps:normal;font-variant-numeric:normal;font-feature-settings:normal;text-align:start;letter-spacing:14.28999996px;writing-mode:lr-tb;text-anchor:start;fill:#9ca2b0;fill-opacity:1"
         d="m 184.55888,88.54323 v 16.61333 h 2.02667 V 88.54323 h 5.62666 v -1.84 h -13.33333 v 1.84 z" />
      <path
         id="path896"
         style="font-style:normal;font-variant:normal;font-weight:300;font-stretch:normal;font-size:26.66666603px;font-family:'Sunflower Light';-inkscape-font-specification:'Sunflower Light, Light';font-variant-ligatures:normal;font-variant-caps:normal;font-variant-numeric:normal;font-feature-settings:normal;text-align:start;letter-spacing:14.28999996px;writing-mode:lr-tb;text-anchor:start;fill:#9ca2b0;fill-opacity:1"
         d="m 220.32596,105.15656 v -1.81333 h -9.17333 v -6.666667 h 7.57333 v -1.786667 h -7.57333 v -6.373333 h 9.17333 V 86.70323 h -11.22667 v 18.45333 z" />
      <path
         id="path898"
         style="font-style:normal;font-variant:normal;font-weight:300;font-stretch:normal;font-size:26.66666603px;font-family:'Sunflower Light';-inkscape-font-specification:'Sunflower Light, Light';font-variant-ligatures:normal;font-variant-caps:normal;font-variant-numeric:normal;font-feature-settings:normal;text-align:start;letter-spacing:14.28999996px;writing-mode:lr-tb;text-anchor:start;fill:#9ca2b0;fill-opacity:1"
         d="m 269.37096,103.10323 0.08,1.76 q -2.74666,0.56 -4.93333,0.56 -2.18667,0 -3.54667,-0.58667 -1.33333,-0.61333 -2.05333,-1.89333 -0.74667,-1.25333 -1.04,-2.88 -0.26667,-1.653334 -0.26667,-4.106667 0,-2.48 0.26667,-4.133333 0.29333,-1.653334 1.04,-2.933333 0.72,-1.28 2.02667,-1.866667 1.33333,-0.586667 3.49333,-0.586667 1.06667,0 2.32,0.16 1.25333,0.133334 2.69333,0.426667 l -0.08,1.733333 q -2.66666,-0.48 -4.8,-0.48 -1.46666,0 -2.4,0.426667 -0.93333,0.4 -1.49333,1.333333 -0.53333,0.906667 -0.74667,2.373333 -0.18666,1.466667 -0.18666,3.573334 0,2.106666 0.16,3.386666 0.18666,1.280004 0.69333,2.293334 0.50667,1.04 1.46667,1.49333 0.98666,0.42667 2.88,0.42667 1.86666,0 4.42666,-0.48 z" />
      <path
         id="path900"
         style="font-style:normal;font-variant:normal;font-weight:300;font-stretch:normal;font-size:26.66666603px;font-family:'Sunflower Light';-inkscape-font-specification:'Sunflower Light, Light';font-variant-ligatures:normal;font-variant-caps:normal;font-variant-numeric:normal;font-feature-settings:normal;text-align:start;letter-spacing:14.28999996px;writing-mode:lr-tb;text-anchor:start;fill:#9ca2b0;fill-opacity:1"
         d="m 294.40555,98.089896 h -5.22666 v 7.066664 h -2.05334 V 86.70323 h 6.82667 q 2.96,0 4.42667,1.36 1.46666,1.333333 1.46666,4.24 0,4.293333 -3.38666,5.36 l 3.54666,7.49333 h -2.26666 z m -5.22666,-1.813333 h 4.8 q 3.76,0 3.76,-3.893333 0,-3.866667 -3.78667,-3.866667 h -4.77333 z" />
      <path
         id="path902"
         style="font-style:normal;font-variant:normal;font-weight:300;font-stretch:normal;font-size:26.66666603px;font-family:'Sunflower Light';-inkscape-font-specification:'Sunflower Light, Light';font-variant-ligatures:normal;font-variant-caps:normal;font-variant-numeric:normal;font-feature-settings:normal;text-align:start;letter-spacing:14.28999996px;writing-mode:lr-tb;text-anchor:start;fill:#9ca2b0;fill-opacity:1"
         d="m 329.04845,105.15656 v -1.81333 h -9.17333 v -6.666667 h 7.57333 v -1.786667 h -7.57333 v -6.373333 h 9.17333 V 86.70323 h -11.22667 v 18.45333 z" />
      <path
         id="path904"
         style="font-style:normal;font-variant:normal;font-weight:300;font-stretch:normal;font-size:26.66666603px;font-family:'Sunflower Light';-inkscape-font-specification:'Sunflower Light, Light';font-variant-ligatures:normal;font-variant-caps:normal;font-variant-numeric:normal;font-feature-settings:normal;text-align:start;letter-spacing:14.28999996px;writing-mode:lr-tb;text-anchor:start;fill:#9ca2b0;fill-opacity:1"
         d="m 347.25138,105.15656 1.33334,-4.74666 h 7.89333 l 1.33333,4.74666 h 2.02667 l -5.06667,-18.45333 h -4.48 l -5.06666,18.45333 z m 5.97334,-16.69333 2.8,10.106666 h -6.98667 l 2.8,-10.106666 z" />
      <path
         id="path906"
         style="font-style:normal;font-variant:normal;font-weight:300;font-stretch:normal;font-size:26.66666603px;font-family:'Sunflower Light';-inkscape-font-specification:'Sunflower Light, Light';font-variant-ligatures:normal;font-variant-caps:normal;font-variant-numeric:normal;font-feature-settings:normal;text-align:start;letter-spacing:14.28999996px;writing-mode:lr-tb;text-anchor:start;fill:#9ca2b0;fill-opacity:1"
         d="m 380.7868,88.54323 v 16.61333 h 2.02667 V 88.54323 h 5.62666 v -1.84 H 375.1068 v 1.84 z" />
      <path
         id="path908"
         style="font-style:normal;font-variant:normal;font-weight:300;font-stretch:normal;font-size:26.66666603px;font-family:'Sunflower Light';-inkscape-font-specification:'Sunflower Light, Light';font-variant-ligatures:normal;font-variant-caps:normal;font-variant-numeric:normal;font-feature-settings:normal;text-align:start;letter-spacing:14.28999996px;writing-mode:lr-tb;text-anchor:start;fill:#9ca2b0;fill-opacity:1"
         d="m 416.55388,105.15656 v -1.81333 h -9.17333 v -6.666667 h 7.57333 v -1.786667 h -7.57333 v -6.373333 h 9.17333 V 86.70323 h -11.22667 v 18.45333 z" />
    </g>
    <g
       id="text830"
       style="font-style:normal;font-variant:normal;font-weight:normal;font-stretch:normal;font-size:10.66666698px;line-height:1.25;font-family:sans-serif;-inkscape-font-specification:'sans-serif, Normal';font-variant-ligatures:normal;font-variant-caps:normal;font-variant-numeric:normal;font-feature-settings:normal;text-align:start;letter-spacing:0px;word-spacing:0px;writing-mode:lr-tb;text-anchor:start;fill:#009cd7;fill-opacity:1;stroke:none;stroke-width:0.32715231"
       aria-label="©">
      <path
         id="path879"
         d="m 423.32689,86.132324 q 0.79167,0 1.47396,0.286458 0.6875,0.286459 1.25521,0.854167 0.56771,0.567708 0.84896,1.25 0.28125,0.682292 0.28125,1.484375 0,0.791667 -0.28125,1.473958 -0.28125,0.677084 -0.84896,1.244792 -0.56771,0.567709 -1.25521,0.854167 -0.68229,0.286458 -1.47396,0.286458 -0.79166,0 -1.47916,-0.286458 -0.68229,-0.286458 -1.25,-0.854167 -0.56771,-0.567708 -0.84896,-1.244792 -0.28125,-0.682291 -0.28125,-1.473958 0,-0.802083 0.28125,-1.484375 0.28125,-0.682292 0.84896,-1.25 0.56771,-0.567708 1.25,-0.854167 0.6875,-0.286458 1.47916,-0.286458 z m 0,0.536458 q -0.68229,0 -1.27083,0.244792 -0.58854,0.244792 -1.07812,0.734375 -0.48959,0.489583 -0.73959,1.088542 -0.25,0.59375 -0.25,1.270833 0,0.671875 0.25,1.265625 0.25,0.588542 0.73959,1.078125 0.48958,0.489584 1.07812,0.739584 0.58854,0.244791 1.27083,0.244791 0.6875,0 1.27605,-0.244791 0.59375,-0.25 1.08333,-0.739584 0.48437,-0.484375 0.72396,-1.072917 0.24479,-0.588541 0.24479,-1.270833 0,-0.692708 -0.24479,-1.28125 -0.24479,-0.59375 -0.72396,-1.078125 -0.48958,-0.489583 -1.08333,-0.734375 -0.58855,-0.244792 -1.27605,-0.244792 z m 1.5573,1.276042 v 0.671875 q -0.34375,-0.171875 -0.6823,-0.255208 -0.33854,-0.08333 -0.68229,-0.08333 -0.77604,0 -1.21354,0.458334 -0.43229,0.453125 -0.43229,1.270833 0,0.828125 0.44271,1.28125 0.44791,0.453125 1.25521,0.453125 0.33333,0 0.65104,-0.07813 0.31771,-0.08333 0.66146,-0.260417 v 0.661459 q -0.34896,0.151042 -0.70834,0.223958 -0.35416,0.07292 -0.71875,0.07292 -1.125,0 -1.78125,-0.635417 -0.65104,-0.635417 -0.65104,-1.71875 0,-1.088542 0.65104,-1.71875 0.65625,-0.630208 1.78125,-0.630208 0.38021,0 0.73438,0.07292 0.35416,0.07292 0.69271,0.213542 z"
         style="" />
    </g>
    <g
       id="text836"
       style="font-style:normal;font-variant:normal;font-weight:300;font-stretch:normal;font-size:26.66666603px;line-height:1.25;font-family:'Sunflower Light';-inkscape-font-specification:'Sunflower Light, Light';font-variant-ligatures:normal;font-variant-caps:normal;font-variant-numeric:normal;font-feature-settings:normal;text-align:start;letter-spacing:10.02999973px;word-spacing:0px;writing-mode:lr-tb;text-anchor:start;fill:#009cd7;fill-opacity:1;stroke:none"
       aria-label="2">
      <path
         id="path876"
         style="font-style:normal;font-variant:normal;font-weight:300;font-stretch:normal;font-size:26.66666603px;font-family:'Sunflower Light';-inkscape-font-specification:'Sunflower Light, Light';font-variant-ligatures:normal;font-variant-caps:normal;font-variant-numeric:normal;font-feature-settings:normal;text-align:start;letter-spacing:13.72999954px;writing-mode:lr-tb;text-anchor:start;fill:#009cd7;fill-opacity:1"
         d="m 245.25898,103.37054 v 1.78666 h -11.25333 v -1.73333 l 5.14667,-5.413333 q 0.66666,-0.693333 1.12,-1.173333 0.48,-0.506667 0.82666,-0.933333 0.34667,-0.426667 0.61334,-0.826667 0.26666,-0.4 0.50666,-0.88 0.48,-1.013333 0.48,-1.973333 0,-1.706667 -0.93333,-2.4 -0.90667,-0.693334 -2.90667,-0.693334 -1.68,0 -3.86666,0.453334 l -0.69334,0.133333 -0.16,-1.706667 q 2.53334,-0.72 5.22667,-0.72 2.72,0 4.08,1.12 1.36,1.12 1.36,3.6 0,0.933334 -0.21333,1.706667 -0.18667,0.773333 -0.64,1.546667 -0.42667,0.746666 -1.12,1.573333 -0.69334,0.8 -1.70667,1.76 l -4.69333,4.773336 z" />
    </g>
  </g>
</svg>
